# xmcd CD database file
#
# Track frame offsets:
#	150
#	26175
#	56517
#	81010
#	108275
#	132675
#	160197
#	203305
#	239100
#
# Disc length: 3735 seconds
#
# Revision: 0
# Processed by: cddbd v1.5.1PL2 Copyright (c) Steve Scherf et al.
# Submitted via: CDex 1.51
#
DISCID=760e9509
DTITLE=Various Artist - THE BEST OF JAZZ STANDARD
DYEAR=1995
DGENRE=Jazz
TTITLE0=Milestones/Miles Davis
TTITLE1='Round Midnight/Herbie Hancock
TTITLE2=Take Five/Dave Brubeck
TTITLE3=Love For Sale/Ellis Marsalis
TTITLE4=Autumn Leaves/David Matthews&His Manhattan Symphony Orchestra
TTITLE5=Softly,As In A Morning Sunrise/Donars Harrison&Terence Blanchard
TTITLE6=You Don't Know What Love Is/David Murray
TTITLE7=My One And Only Love/Makoto Ozone
TTITLE8=So What/Miles Davis
EXTD=YEAR: 1995
EXTT0=
EXTT1=
EXTT2=
EXTT3=
EXTT4=
EXTT5=
EXTT6=
EXTT7=
EXTT8=
PLAYORDER=
